HIERARCHY
ROOT Hips
{
	OFFSET -0.000007 -0.000097 0.000001
	CHANNELS 6 Xposition Yposition Zposition Zrotation Xrotation Yrotation
	JOINT RHip
	{
		OFFSET 0.030167 0.017194 -0.002064
		CHANNELS 3 Zrotation Xrotation Yrotation
		JOINT RKnee
		{
			OFFSET -0.133364 -0.273868 0.186217
			CHANNELS 3 Zrotation Xrotation Yrotation
			JOINT RFoot
			{
				OFFSET -0.156437 0.074743 0.381549
				CHANNELS 3 Zrotation Xrotation Yrotation
				End Site
				{
					OFFSET 0 0 0
				}
			}
		}
	}
	JOINT LHip
	{
		OFFSET -0.030154 -0.017040 0.002077
		CHANNELS 3 Zrotation Xrotation Yrotation
		JOINT LKnee
		{
			OFFSET 0.187600 -0.274947 0.169195
			CHANNELS 3 Zrotation Xrotation Yrotation
			JOINT LFoot
			{
				OFFSET 0.081661 0.093321 0.400833
				CHANNELS 3 Zrotation Xrotation Yrotation
				End Site
				{
					OFFSET 0 0 0
				}
			}
		}
	}
	JOINT Spine
	{
		OFFSET -0.046486 0.106702 -0.254010
		CHANNELS 3 Zrotation Xrotation Yrotation
		JOINT Thorax
		{
			OFFSET -0.081069 0.142811 -0.260723
			CHANNELS 3 Zrotation Xrotation Yrotation
			JOINT Neck
			{
				OFFSET -0.008811 0.005283 -0.112808
				CHANNELS 3 Zrotation Xrotation Yrotation
				JOINT Head
				{
					OFFSET -0.018484 0.026056 -0.054764
					CHANNELS 3 Zrotation Xrotation Yrotation
					End Site
					{
						OFFSET 0 0 0
					}
				}
			}
			JOINT LShoulder
			{
				OFFSET -0.004502 -0.048714 0.056989
				CHANNELS 3 Zrotation Xrotation Yrotation
				JOINT LElbow
				{
					OFFSET 0.009736 0.021905 0.068585
					CHANNELS 3 Zrotation Xrotation Yrotation
					JOINT LWrist
					{
						OFFSET 0.084022 0.141981 -0.001789
						CHANNELS 3 Zrotation Xrotation Yrotation
						End Site
						{
							OFFSET 0 0 0
						}
					}
				}
			}
			JOINT RShoulder
			{
				OFFSET 0.025116 0.048711 0.007843
				CHANNELS 3 Zrotation Xrotation Yrotation
				JOINT RElbow
				{
					OFFSET 0.017881 0.143129 -0.053821
					CHANNELS 3 Zrotation Xrotation Yrotation
					JOINT RWrist
					{
						OFFSET -0.010777 0.211010 0.016903
						CHANNELS 3 Zrotation Xrotation Yrotation
						End Site
						{
							OFFSET 0 0 0
						}
					}
				}
			}
		}
	}
}
MOTION
Frames: 18
Frame Time: 0.020000
-0.000007 -0.000097 0.000001 0.000000 0.000000 0.000000 0.000000 0.000000 0.000000 0.000000 0.000000 0.000000 0.000000 0.000000 0.000000 0.000000 0.000000 0.000000 0.000000 0.000000 0.000000 0.000000 0.000000 0.000000 0.000000 0.000000 0.000000 0.000000 0.000000 0.000000 0.000000 0.000000 0.000000 0.000000 0.000000 0.000000 0.000000 0.000000 0.000000 0.000000 0.000000 0.000000 0.000000 0.000000 0.000000 0.000000 0.000000 0.000000 0.000000 0.000000 0.000000 0.000000 0.000000 0.000000
-0.000002 -0.000094 0.000001 -5.641269 0.491806 -1.711725 -5.641269 0.491806 -1.711725 -0.151160 -1.510142 0.640783 -1.496772 -2.916429 1.359914 -5.618546 0.492608 -1.730621 -2.873309 0.267057 -1.563903 0.485039 -4.709707 1.711505 0.931941 0.793306 2.537417 -0.402199 1.511999 0.115754 0.207085 -0.637405 3.821855 -6.065049 6.332793 -7.440959 -7.371583 0.488849 -8.704031 9.789676 -13.771967 -18.039693 0.103910 -8.825390 5.225035 -9.780612 -2.997046 3.520194 -7.468209 -2.620171 -2.352932 4.324567 -0.622404 -0.402476
0.000001 -0.000086 0.000001 -8.834208 0.478842 -2.242050 -8.834208 0.478842 -2.242050 -0.263074 -2.900486 1.263628 -2.963831 -6.472912 1.294707 -8.755057 0.481702 -2.263933 -2.717098 -1.178319 -2.424152 0.236397 -8.078925 4.632437 1.277688 2.567917 3.993921 -1.105582 3.010083 -0.321237 0.459291 -0.520451 9.945695 -13.227554 7.621772 -18.965929 -19.887131 -0.187778 -23.547236 15.942572 -1.457876 -43.040067 0.859153 -19.311133 11.338895 -24.374698 -1.805867 5.948833 -12.135283 -5.986625 -3.302769 4.571126 -5.192588 -0.837794
0.000002 -0.000084 -0.000001 -10.960648 0.777697 -3.312890 -10.960648 0.777697 -3.312890 -1.207777 -3.472889 0.930990 -4.039999 -11.381800 -1.810824 -10.867631 0.775962 -3.333339 -2.307349 -2.131125 -2.824354 -2.213806 -8.989983 13.241459 1.443938 3.085936 4.551789 -1.437275 4.236843 -0.252234 0.439098 1.777397 9.299489 -9.574783 6.610013 -13.513184 -25.786344 0.596997 -30.601667 16.977513 8.700248 -61.199398 7.163448 -32.552611 17.093329 -29.974056 -1.338196 6.923028 -13.681265 -8.274235 -3.276724 6.729431 -8.812709 -1.504970
0.000001 -0.000085 -0.000002 -10.674735 0.406661 -2.434082 -10.674735 0.406661 -2.434082 -2.081032 -4.085789 0.671782 -5.517135 -15.003576 -1.505919 -10.573136 0.406549 -2.449326 -2.642335 -3.529075 -3.964779 -2.373687 -8.421138 13.612673 1.868442 3.434200 5.634071 -1.612284 4.673949 -0.327719 0.311276 2.100365 7.312674 -5.984627 6.328840 -7.296676 -28.989519 4.489569 -34.383766 3.563586 27.338262 -76.219044 17.576450 -40.916566 17.270331 -32.583380 -3.332394 9.446376 -14.026543 -10.371171 -2.863508 8.430991 -14.678942 -2.501545
0.000002 -0.000086 -0.000003 -11.249990 0.045912 -1.740237 -11.249990 0.045912 -1.740237 -2.221274 -7.433675 2.386389 -7.272160 -17.039859 1.229989 -11.139227 0.045909 -1.749680 -4.765926 -5.147234 -6.223849 -2.516878 -5.907084 13.342542 2.301746 3.489033 6.639607 -1.680003 5.803745 0.131637 0.358963 3.334842 8.176540 -2.434569 7.252487 -0.104633 -31.353418 1.796184 -37.219927 18.778432 11.128774 -70.682077 25.808535 -32.230055 10.867383 -34.901726 -5.025783 11.762389 -12.686731 -11.916983 -2.076559 7.239399 -11.967015 -1.943697
0.000008 -0.000089 -0.000004 -13.602859 -1.497762 1.477710 -13.602859 -1.497762 1.477710 1.815727 -11.114973 6.882047 -9.837508 -15.747745 9.804311 -13.492656 -1.492397 1.476484 -7.347170 -5.166279 -7.589858 -2.429120 -4.644183 12.582961 2.487872 4.391239 7.323007 -1.717252 7.081782 0.698707 0.190006 6.915717 6.818957 -0.075710 6.473848 3.959709 -33.258518 -2.302124 -39.592037 28.879564 1.844074 -74.507449 34.354240 -28.642024 7.377709 -39.246104 -6.905563 15.177206 -13.557501 -12.298568 -2.235543 8.380697 -12.903936 -2.271461
0.000014 -0.000094 -0.000004 -13.730009 -2.231408 3.214093 -13.730009 -2.231408 3.214093 5.509733 -18.483599 13.015399 -12.356708 -14.725660 17.845832 -13.620715 -2.223104 3.218877 -9.374803 -7.708265 -10.240202 -2.590538 -0.878509 11.721779 2.574377 5.035112 7.694949 -1.392530 9.496775 2.369250 0.101353 7.816155 6.190753 -1.350621 7.423819 2.050418 -34.183033 -6.940598 -40.857592 40.399412 -10.693973 -76.331741 38.079701 -24.407813 5.498913 -44.654450 -6.197125 16.600669 -13.144330 -10.208890 -2.632245 8.163608 -17.782184 -2.824210
0.000020 -0.000098 -0.000003 -13.124714 -2.289166 3.389522 -13.124714 -2.289166 3.389522 15.830141 -28.367702 23.025350 -14.254616 -12.373885 26.354980 -13.012395 -2.279835 3.394212 -8.957449 -10.174511 -11.660109 -2.485347 1.385732 10.127805 2.960138 5.903444 8.777471 -1.635543 11.123286 2.688483 -0.106114 8.377211 4.567239 -5.033526 8.848502 -3.923812 -36.270345 -7.851504 -43.444016 38.826873 -6.389542 -79.039405 45.772281 -23.881731 3.784029 -47.646111 -4.532049 15.931688 -11.077489 -11.093384 -1.796361 1.898330 -23.047962 -1.705909
0.000022 -0.000104 -0.000004 -12.988732 -2.056982 2.853473 -12.988732 -2.056982 2.853473 22.371736 -34.383717 28.371843 -18.122315 -14.603030 31.805792 -12.875064 -2.049341 2.858406 -9.977619 -11.640678 -13.090283 -1.996710 2.453274 7.145132 3.423773 5.558277 9.720141 -0.722636 12.547788 4.774138 -0.139546 6.446466 3.525757 -5.314700 11.656028 -2.743960 -37.861880 -10.630210 -45.537785 47.557106 -16.377408 -79.897796 39.916419 -19.897367 4.220159 -49.781103 -1.945070 13.643783 -11.694335 -11.262251 -1.940754 -1.187194 -22.080129 -0.802177
0.000024 -0.000109 -0.000004 -12.594782 -1.718406 2.096543 -12.594782 -1.718406 2.096543 25.933672 -38.345167 31.360005 -19.474166 -13.387019 36.750864 -12.483511 -1.713200 2.101831 -10.068877 -11.939980 -13.329227 -1.140361 1.477966 3.834668 3.747058 4.879136 10.283404 0.305489 13.716904 6.902932 0.011302 4.513732 4.219756 -4.673083 11.258362 -1.840683 -39.268369 -14.513561 -47.524423 57.303326 -25.337453 -83.375188 33.516782 -16.415090 4.451227 -51.471399 0.345840 11.346697 -11.762306 -8.382440 -2.630396 -2.920346 -21.358810 -0.313724
0.000029 -0.000114 -0.000003 -12.465710 -1.633941 1.912990 -12.465710 -1.633941 1.912990 27.671270 -38.553288 31.842627 -18.120751 -10.351235 39.161694 -12.359993 -1.629205 1.917616 -7.917684 -11.921780 -12.379215 -0.275629 0.664764 0.617251 4.012098 4.488634 10.792094 0.808912 14.065456 7.849874 0.151774 3.225075 5.390474 -3.819771 13.239910 0.757137 -39.002056 -18.099285 -47.444734 64.376752 -28.650825 -88.286228 28.403263 -17.201065 5.428593 -52.664278 1.194405 10.633591 -12.106733 -7.700563 -2.899392 -4.231412 -20.649840 0.043387
0.000031 -0.000114 -0.000002 -13.526825 -1.298189 1.012677 -13.526825 -1.298189 1.012677 27.510331 -37.140638 31.092551 -15.663857 -6.727217 40.590546 -13.424424 -1.295503 1.013457 -4.954648 -11.985209 -11.093597 0.434511 -0.117907 -1.749923 4.205778 4.413458 11.214493 1.332285 14.216157 8.754164 0.370184 2.135239 8.224717 -3.995950 15.159323 1.443735 -39.252803 -21.904183 -48.068074 74.764038 -31.288231 -96.465929 24.173830 -16.884000 5.979266 -52.997839 2.296086 9.267144 -12.830886 -5.522516 -3.649444 -4.740734 -20.403850 0.177422
0.000036 -0.000111 -0.000001 -12.880347 -2.073798 2.900793 -12.880347 -2.073798 2.900793 28.356153 -32.849804 29.262914 -12.384518 -2.870824 40.815817 -12.784572 -2.064066 2.899960 -0.694288 -10.148038 -7.685061 2.060787 -5.368884 -3.488755 4.156385 4.810481 11.189803 1.933782 13.953433 9.638896 0.601824 1.662821 11.971310 -3.360036 18.052332 3.922214 -39.083677 -21.166862 -47.788455 84.112900 -32.637546 -103.854941 23.097418 -16.592409 6.043160 -52.775446 2.878183 8.417892 -15.342768 -5.165042 -4.615748 -6.533677 -20.932232 0.639723
0.000039 -0.000105 -0.000001 -10.619325 -3.132016 5.405185 -10.619325 -3.132016 5.405185 28.322917 -30.561477 28.233180 -7.753593 2.392945 41.114385 -10.527876 -3.112575 5.404849 7.665314 -10.494556 -3.520485 1.169286 -6.929697 0.770683 4.277517 5.821626 11.675559 1.939301 12.751093 9.211553 0.815568 2.414893 14.838297 -0.904347 19.226780 8.587751 -39.248621 -17.929157 -47.744922 92.266216 -39.008390 -106.895092 21.729835 -11.641234 4.446228 -50.526601 3.494013 6.982692 -18.077483 -4.579878 -5.749313 -13.215288 -23.274213 2.534534
0.000040 -0.000108 0.000001 -10.797425 -1.759766 2.347585 -10.797425 -1.759766 2.347585 28.585435 -25.709741 26.283629 -2.913375 6.687911 36.728719 -10.710989 -1.747753 2.339506 14.713844 -14.977228 -3.750673 0.864996 -13.752907 5.422334 4.198520 7.164345 11.773820 2.308773 12.898690 9.875442 0.912740 3.535116 15.351714 0.159747 17.492482 9.706820 -40.834832 -7.831549 -49.012492 90.486714 -47.026146 -100.895963 20.036131 -10.195888 4.075594 -49.204361 2.691948 7.654858 -20.338143 -3.512682 -6.885556 -18.220854 -19.438227 3.538294
0.000035 -0.000114 0.000003 -15.562318 -0.995748 0.004907 -15.562318 -0.995748 0.004907 24.747821 -25.608363 24.869764 -0.198511 9.008628 32.196069 -15.487356 -0.994382 -0.006174 21.733412 -19.045910 -4.267653 -1.778186 -14.268842 13.332840 3.783715 8.368832 11.122309 2.869839 12.608862 10.700908 1.352757 6.941132 17.684098 -0.600240 11.495209 5.640421 -39.479941 -9.840592 -47.482813 69.848088 -45.628483 -82.221750 21.859669 -10.496440 4.018846 -48.017875 2.807104 7.193316 -22.246995 -7.084618 -6.495463 -19.504056 -10.485842 2.802059
0.000027 -0.000123 0.000004 -19.999617 -0.654868 -1.682132 -19.999617 -0.654868 -1.682132 21.742813 -23.936356 22.993590 1.275307 9.693280 25.206236 -19.931554 -0.663002 -1.692069 28.092638 -21.437000 -3.624094 -3.425823 -16.343934 18.454520 3.487583 8.789552 10.579375 2.891407 11.748180 10.426863 1.515025 8.749774 17.884442 -0.130599 7.770503 4.577575 -37.410714 -6.931060 -44.792308 57.396207 -38.146767 -73.904142 21.164606 -12.270780 4.737686 -46.522464 2.865001 6.736316 -25.545042 -10.667025 -6.406567 -13.973921 -2.412275 1.287144
